<svg version="1.1" id="Layer_1" xmlns="http://www.w3.org/2000/svg" xmlns:xlink="http://www.w3.org/1999/xlink" x="0px" y="0px"
	 width="100%" viewBox="0 0 381 382" enable-background="new 0 0 381 382" xml:space="preserve">
<path fill="#A5DEE4" opacity="1.000000" stroke="none" 
	d="
M382.000000,349.000000 
	C382.000000,349.750000 382.000000,350.500000 381.718506,351.869690 
	C380.177612,356.016205 379.217957,359.687195 377.603516,363.043274 
	C372.394318,373.872009 362.868378,379.337616 352.000000,383.000000 
	C235.072495,383.000000 118.144981,383.000000 1.000000,383.000000 
	C1.000000,266.644745 1.000000,150.289352 1.281191,33.240631 
	C2.386985,30.036356 2.686226,27.157495 4.137392,25.085354 
	C8.060893,19.482927 11.753884,13.349244 16.914865,9.097059 
	C21.259626,5.517367 27.537342,4.283752 33.289963,2.267324 
	C35.761486,2.683356 37.902412,2.983490 40.043396,2.983914 
	C151.137817,3.005916 262.232239,3.002326 373.326660,3.002096 
	C380.997803,3.002080 381.000671,3.004383 381.000763,10.474669 
	C381.002197,121.069420 380.996918,231.664169 381.045227,342.258881 
	C381.046204,344.506073 381.667908,346.752960 382.000000,349.000000 
M154.703415,180.613525 
	C167.937241,180.722839 181.171036,180.857712 194.404999,180.877625 
	C195.195923,180.878815 195.988205,179.959900 197.394623,179.121658 
	C206.583145,176.602493 213.007706,170.959244 215.524979,161.732773 
	C218.260529,151.706314 217.224731,151.636856 208.524048,151.979858 
	C206.865341,152.045258 205.126312,151.702148 203.565643,152.100723 
	C202.357071,152.409393 200.809448,153.349869 200.371674,154.406769 
	C196.917068,162.747025 196.001831,163.457443 186.858047,163.461197 
	C174.399536,163.466293 161.940994,163.431732 149.482529,163.449249 
	C143.723724,163.457336 143.088837,164.163116 145.010803,169.399155 
	C146.244476,172.760025 148.095856,175.894135 150.170441,179.723694 
	C151.449020,179.874130 152.727585,180.024567 154.703415,180.613525 
M179.434540,124.652664 
	C184.308105,123.825394 189.158905,122.507080 194.060287,122.279907 
	C202.524536,121.887604 211.021255,122.241692 219.501648,122.108833 
	C220.971909,122.085808 222.428772,121.205696 223.891815,120.721466 
	C223.105621,119.235786 222.693954,117.253410 221.478561,116.336922 
	C189.259827,92.041977 149.340134,111.875328 143.352829,145.817566 
	C141.049332,158.876190 141.648941,156.895538 152.511765,157.006317 
	C153.343231,157.014801 154.421432,157.337646 154.959213,156.939423 
	C156.439636,155.843170 158.728729,154.549759 158.876221,153.143295 
	C160.258011,139.967133 166.426758,130.351257 179.434540,124.652664 
M237.192993,170.605316 
	C237.822220,168.202179 238.652893,165.831497 239.046280,163.390366 
	C240.889862,151.950439 240.842682,152.142853 229.202103,151.898224 
	C224.926865,151.808380 223.342270,153.122635 223.000916,157.372772 
	C221.797562,172.355026 210.567932,184.520279 195.746902,185.981964 
	C185.510056,186.991547 175.131989,186.522324 164.823212,186.888016 
	C162.661850,186.964691 160.527496,187.803375 158.380707,188.290909 
	C159.773682,190.176102 161.145859,192.077332 162.576950,193.933136 
	C162.867737,194.310226 163.378952,194.518433 163.791214,194.800583 
	C191.066208,213.467178 227.345825,198.904007 237.192993,170.605316 
M274.717529,227.466827 
	C272.934753,227.466827 271.151978,227.466827 269.497620,227.466827 
	C268.569824,231.891617 268.839050,234.968216 272.413544,237.878677 
	C276.855072,241.495041 280.461639,246.136841 284.582214,250.498123 
	C280.330994,255.040619 276.856018,259.962097 272.242615,263.318970 
	C268.209351,266.253632 268.922974,269.253296 269.239868,272.960815 
	C275.658936,272.960815 281.745667,272.960815 288.127258,272.960815 
	C287.659851,269.647064 290.342743,265.741608 285.058563,264.169373 
	C287.153381,261.918457 289.053772,259.876434 291.200623,257.569611 
	C293.471191,259.972656 295.454742,262.071930 297.805023,264.559357 
	C296.021759,264.921082 294.972351,265.133972 293.976318,265.335999 
	C293.976318,267.963074 293.976318,270.398987 293.976318,273.012451 
	C300.335815,273.012451 306.450378,273.012451 312.637451,273.012451 
	C313.566681,268.947784 313.214478,265.711426 309.560059,262.690399 
	C305.272491,259.145996 301.752136,254.673538 297.785522,250.483688 
	C301.932953,246.067123 305.460083,241.541885 309.769287,237.956772 
	C313.459534,234.886642 313.665894,231.723480 312.572937,227.802368 
	C306.282562,227.802368 300.219330,227.802368 293.908356,227.802368 
	C294.254303,231.342621 291.891937,235.351562 297.484161,236.754852 
	C295.245880,239.124527 293.268280,241.218231 291.148590,243.462387 
	C288.758148,240.930267 286.844269,238.902969 284.677246,236.607498 
	C290.649353,234.949142 287.942505,231.003143 287.948547,227.467010 
	C283.618866,227.467010 279.637421,227.467010 274.717529,227.466827 
M187.544281,229.819473 
	C176.983292,225.070648 165.952942,228.631363 154.915253,227.270157 
	C154.915253,230.417816 154.915253,232.847366 154.915253,235.377029 
	C156.430191,235.741150 157.773972,236.064133 159.014801,236.362366 
	C159.014801,246.029587 159.014801,255.310654 159.014801,264.568817 
	C157.440216,264.919830 156.095444,265.219635 154.907745,265.484406 
	C154.907745,268.182617 154.907745,270.466644 154.907745,272.823730 
	C161.173340,272.823730 167.209137,272.823730 173.438141,272.823730 
	C173.523010,268.903076 175.400192,264.640167 169.475128,264.333130 
	C169.475128,261.128448 169.475128,258.334381 169.475128,254.770325 
	C172.307831,255.221100 176.360123,254.797180 177.114029,256.176331 
	C179.940216,261.346313 181.688721,267.105408 183.992386,273.032715 
	C187.391434,273.032715 191.514160,273.032715 195.758667,273.032715 
	C195.758667,270.085571 195.758667,267.317383 195.758667,264.904114 
	C188.677979,262.770355 192.121048,254.464447 186.529968,251.957794 
	C195.526138,245.432358 195.890396,237.537628 187.544281,229.819473 
M126.232056,237.785995 
	C130.009155,237.392441 133.786255,236.998901 137.576889,236.603943 
	C137.850952,239.352264 138.024246,241.090164 138.188446,242.736908 
	C141.496552,242.736908 144.419357,242.736908 147.360413,242.736908 
	C147.360413,237.578232 147.360413,232.710938 147.360413,227.747528 
	C135.205994,227.747528 123.458305,227.747528 111.550644,227.747528 
	C111.550644,230.808350 111.550644,233.561371 111.550644,236.534424 
	C113.166428,236.775833 114.538979,236.980896 115.913254,237.186218 
	C115.913254,246.545197 115.913254,255.501038 115.913254,264.725922 
	C114.395081,264.912964 113.003677,265.084412 111.525955,265.266479 
	C111.525955,267.983246 111.525955,270.395233 111.525955,272.851074 
	C123.677940,272.851074 135.574661,272.851074 147.488556,272.851074 
	C147.488556,267.408325 147.488556,262.315979 147.488556,257.174072 
	C144.170914,257.174072 141.133865,257.174072 138.045547,257.174072 
	C137.913467,259.946899 137.798523,262.359955 137.688232,264.675659 
	C133.589584,264.675659 130.003922,264.675659 126.362106,264.675659 
	C126.362106,261.110535 126.362106,257.860809 126.362106,254.443573 
	C129.357132,254.263992 132.105942,254.099167 134.831757,253.935730 
	C134.831757,251.006973 134.831757,248.428894 134.831757,245.665039 
	C131.800003,245.502747 129.072281,245.356735 126.124054,245.198914 
	C126.124054,242.675446 126.124054,240.696960 126.232056,237.785995 
M187.246506,146.303070 
	C189.859344,145.924469 192.468979,145.247360 195.085602,145.219131 
	C206.237411,145.098770 217.391327,145.168442 228.544464,145.172394 
	C239.872345,145.176422 240.407242,144.314301 235.301361,133.910706 
	C234.113174,131.489731 233.557343,128.674484 229.615768,128.747498 
	C216.303497,128.994141 202.971130,128.541931 189.673126,129.052155 
	C178.862686,129.466904 171.252304,135.413055 167.283493,145.412827 
	C163.446075,155.081528 164.929794,156.849915 175.129654,157.079285 
	C179.266190,157.172302 182.154968,156.763596 182.848038,151.761490 
	C183.097061,149.964005 185.298874,148.437057 187.246506,146.303070 
M88.304512,255.824203 
	C92.139481,251.215210 95.676361,246.308823 99.893929,242.081558 
	C104.045387,237.920547 104.728630,233.314178 103.610977,227.858521 
	C92.245712,227.858521 80.869743,227.858521 69.595200,227.858521 
	C69.595200,233.371796 69.595200,238.460648 69.595200,243.560486 
	C72.895569,243.560486 75.819153,243.560486 78.850105,243.560486 
	C79.039688,241.179047 79.206802,239.079773 79.371101,237.015961 
	C83.130547,237.015961 86.609375,237.015961 90.921013,237.015961 
	C84.513580,244.936279 78.980568,252.425583 72.732567,259.261383 
	C68.827461,263.533905 68.772224,267.918793 69.495491,272.942749 
	C81.105217,272.942749 92.377655,272.942749 103.599609,272.942749 
	C103.599609,267.599457 103.599609,262.524902 103.599609,257.449036 
	C100.302223,257.449036 97.382477,257.449036 94.333328,257.449036 
	C94.109940,259.798279 93.913734,261.861572 93.733192,263.760132 
	C89.669975,263.760132 85.991310,263.760132 81.680885,263.760132 
	C84.047310,260.933868 85.953323,258.657471 88.304512,255.824203 
M250.807144,229.609451 
	C248.905289,225.466553 245.243347,228.132950 242.443710,227.490494 
	C239.055450,226.712952 237.550461,228.358246 236.548218,231.663345 
	C233.567200,241.493881 230.271103,251.233643 226.859024,260.924713 
	C226.175995,262.864655 224.436615,264.432678 222.467590,267.167786 
	C222.467590,268.100525 222.467590,270.503387 222.467590,272.896973 
	C228.236420,272.896973 233.646790,272.896973 239.268738,272.896973 
	C239.268738,270.183472 239.268738,267.758789 239.268738,265.369202 
	C237.689011,265.064240 236.344925,264.804749 234.987518,264.542725 
	C237.216782,257.077423 234.349609,258.422272 247.446381,258.136230 
	C252.506195,258.025726 251.389679,261.888062 252.405823,264.542480 
	C250.861435,264.932739 249.505493,265.275391 248.431335,265.546814 
	C248.431335,268.221497 248.431335,270.491486 248.431335,272.824677 
	C254.260162,272.824677 259.792267,272.824677 265.882446,272.824677 
	C265.515198,270.026672 265.559845,265.709686 264.830078,265.574585 
	C260.591339,264.789642 261.107880,261.208160 260.251587,258.740417 
	C256.992706,249.348511 254.074066,239.838516 250.807144,229.609451 
M215.297897,268.472351 
	C215.398590,259.501373 215.488678,250.530258 215.611649,241.559586 
	C215.629623,240.249130 215.372375,238.067291 215.974716,237.769424 
	C220.866989,235.350143 218.219269,231.370911 218.641617,227.797974 
	C212.763031,227.797974 207.231857,227.797974 201.489395,227.797974 
	C201.835556,231.872955 199.038696,236.732544 206.055603,237.589279 
	C204.091263,251.717468 209.980011,266.577148 199.481354,279.291473 
	C204.812698,281.006897 208.771255,280.447998 211.393127,275.720276 
	C212.594650,273.553741 213.835480,271.408966 215.297897,268.472351 
z"/>
<path fill="#B7D7DA" opacity="1.000000" stroke="none" 
	d="
M382.000000,348.531342 
	C381.667908,346.752960 381.046204,344.506073 381.045227,342.258881 
	C380.996918,231.664169 381.002197,121.069420 381.000763,10.474669 
	C381.000671,3.004383 380.997803,3.002080 373.326660,3.002096 
	C262.232239,3.002326 151.137817,3.005916 40.043396,2.983914 
	C37.902412,2.983490 35.761486,2.683356 33.760880,2.213624 
	C35.400074,1.936006 36.898922,1.995642 38.397770,1.995667 
	C151.030914,1.997513 263.664062,1.998675 376.297180,1.950977 
	C377.864929,1.950313 379.432404,1.330721 381.000000,0.999999 
	C381.333344,2.497698 381.957306,3.995210 381.958282,5.493124 
	C382.005859,79.400238 382.000000,153.307388 382.000000,227.214523 
	C382.000000,267.497253 382.000000,307.779968 382.000000,348.531342 
z"/>
<path fill="#FFFFFF" opacity="1.000000" stroke="none" 
	d="
M380.531342,0.999999 
	C379.432404,1.330721 377.864929,1.950313 376.297180,1.950977 
	C263.664062,1.998675 151.030914,1.997513 38.397770,1.995667 
	C36.898922,1.995642 35.400074,1.936006 33.430309,1.957894 
	C27.537342,4.283752 21.259626,5.517367 16.914865,9.097059 
	C11.753884,13.349244 8.060893,19.482927 4.137392,25.085354 
	C2.686226,27.157495 2.386985,30.036356 1.281191,32.773647 
	C1.000000,22.344669 1.000000,11.689339 1.000000,1.000000 
	C127.354225,1.000000 253.708450,1.000000 380.531342,0.999999 
z"/>
<path fill="#FFFFFF" opacity="1.000000" stroke="none" 
	d="
M352.468658,383.000000 
	C362.868378,379.337616 372.394318,373.872009 377.603516,363.043274 
	C379.217957,359.687195 380.177612,356.016205 381.718506,352.244690 
	C382.000000,362.258636 382.000000,372.517273 382.000000,383.000000 
	C372.313599,383.000000 362.625458,383.000000 352.468658,383.000000 
z"/>
<path fill="#121515" opacity="1.000000" stroke="none" 
	d="
M179.069275,124.788689 
	C166.426758,130.351257 160.258011,139.967133 158.876221,153.143295 
	C158.728729,154.549759 156.439636,155.843170 154.959213,156.939423 
	C154.421432,157.337646 153.343231,157.014801 152.511765,157.006317 
	C141.648941,156.895538 141.049332,158.876190 143.352829,145.817566 
	C149.340134,111.875328 189.259827,92.041977 221.478561,116.336922 
	C222.693954,117.253410 223.105621,119.235786 223.891815,120.721466 
	C222.428772,121.205696 220.971909,122.085808 219.501648,122.108833 
	C211.021255,122.241692 202.524536,121.887604 194.060287,122.279907 
	C189.158905,122.507080 184.308105,123.825394 179.069275,124.788689 
z"/>
<path fill="#121415" opacity="1.000000" stroke="none" 
	d="
M237.078308,170.981033 
	C227.345825,198.904007 191.066208,213.467178 163.791214,194.800583 
	C163.378952,194.518433 162.867737,194.310226 162.576950,193.933136 
	C161.145859,192.077332 159.773682,190.176102 158.380707,188.290909 
	C160.527496,187.803375 162.661850,186.964691 164.823212,186.888016 
	C175.131989,186.522324 185.510056,186.991547 195.746902,185.981964 
	C210.567932,184.520279 221.797562,172.355026 223.000916,157.372772 
	C223.342270,153.122635 224.926865,151.808380 229.202103,151.898224 
	C240.842682,152.142853 240.889862,151.950439 239.046280,163.390366 
	C238.652893,165.831497 237.822220,168.202179 237.078308,170.981033 
z"/>
<path fill="#131718" opacity="1.000000" stroke="none" 
	d="
M275.186737,227.466919 
	C279.637421,227.467010 283.618866,227.467010 287.948547,227.467010 
	C287.942505,231.003143 290.649353,234.949142 284.677246,236.607498 
	C286.844269,238.902969 288.758148,240.930267 291.148590,243.462387 
	C293.268280,241.218231 295.245880,239.124527 297.484161,236.754852 
	C291.891937,235.351562 294.254303,231.342621 293.908356,227.802368 
	C300.219330,227.802368 306.282562,227.802368 312.572937,227.802368 
	C313.665894,231.723480 313.459534,234.886642 309.769287,237.956772 
	C305.460083,241.541885 301.932953,246.067123 297.785522,250.483688 
	C301.752136,254.673538 305.272491,259.145996 309.560059,262.690399 
	C313.214478,265.711426 313.566681,268.947784 312.637451,273.012451 
	C306.450378,273.012451 300.335815,273.012451 293.976318,273.012451 
	C293.976318,270.398987 293.976318,267.963074 293.976318,265.335999 
	C294.972351,265.133972 296.021759,264.921082 297.805023,264.559357 
	C295.454742,262.071930 293.471191,259.972656 291.200623,257.569611 
	C289.053772,259.876434 287.153381,261.918457 285.058563,264.169373 
	C290.342743,265.741608 287.659851,269.647064 288.127258,272.960815 
	C281.745667,272.960815 275.658936,272.960815 269.239868,272.960815 
	C268.922974,269.253296 268.209351,266.253632 272.242615,263.318970 
	C276.856018,259.962097 280.330994,255.040619 284.582214,250.498123 
	C280.461639,246.136841 276.855072,241.495041 272.413544,237.878677 
	C268.839050,234.968216 268.569824,231.891617 269.497620,227.466827 
	C271.151978,227.466827 272.934753,227.466827 275.186737,227.466919 
z"/>
<path fill="#151819" opacity="1.000000" stroke="none" 
	d="
M187.859161,230.019638 
	C195.890396,237.537628 195.526138,245.432358 186.529968,251.957794 
	C192.121048,254.464447 188.677979,262.770355 195.758667,264.904114 
	C195.758667,267.317383 195.758667,270.085571 195.758667,273.032715 
	C191.514160,273.032715 187.391434,273.032715 183.992386,273.032715 
	C181.688721,267.105408 179.940216,261.346313 177.114029,256.176331 
	C176.360123,254.797180 172.307831,255.221100 169.475128,254.770325 
	C169.475128,258.334381 169.475128,261.128448 169.475128,264.333130 
	C175.400192,264.640167 173.523010,268.903076 173.438141,272.823730 
	C167.209137,272.823730 161.173340,272.823730 154.907745,272.823730 
	C154.907745,270.466644 154.907745,268.182617 154.907745,265.484406 
	C156.095444,265.219635 157.440216,264.919830 159.014801,264.568817 
	C159.014801,255.310654 159.014801,246.029587 159.014801,236.362366 
	C157.773972,236.064133 156.430191,235.741150 154.915253,235.377029 
	C154.915253,232.847366 154.915253,230.417816 154.915253,227.270157 
	C165.952942,228.631363 176.983292,225.070648 187.859161,230.019638 
M176.073898,246.842331 
	C179.806946,246.408463 183.149948,245.362015 182.609604,240.646759 
	C182.112350,236.307495 177.917709,234.982376 169.552490,236.365936 
	C169.552490,239.692322 169.552490,243.055496 169.552490,246.849594 
	C171.660049,246.849594 173.441025,246.849594 176.073898,246.842331 
z"/>
<path fill="#141717" opacity="1.000000" stroke="none" 
	d="
M149.670349,179.129898 
	C148.095856,175.894135 146.244476,172.760025 145.010803,169.399155 
	C143.088837,164.163116 143.723724,163.457336 149.482529,163.449249 
	C161.940994,163.431732 174.399536,163.466293 186.858047,163.461197 
	C196.001831,163.457443 196.917068,162.747025 200.371674,154.406769 
	C200.809448,153.349869 202.357071,152.409393 203.565643,152.100723 
	C205.126312,151.702148 206.865341,152.045258 208.524048,151.979858 
	C217.224731,151.636856 218.260529,151.706314 215.524979,161.732773 
	C213.007706,170.959244 206.583145,176.602493 196.792923,179.285614 
	C195.801010,179.460663 195.410782,179.471771 194.633331,179.347397 
	C179.387527,179.184570 164.528931,179.157242 149.670349,179.129898 
z"/>
<path fill="#15191A" opacity="1.000000" stroke="none" 
	d="
M126.178055,238.252228 
	C126.124054,240.696960 126.124054,242.675446 126.124054,245.198914 
	C129.072281,245.356735 131.800003,245.502747 134.831757,245.665039 
	C134.831757,248.428894 134.831757,251.006973 134.831757,253.935730 
	C132.105942,254.099167 129.357132,254.263992 126.362106,254.443573 
	C126.362106,257.860809 126.362106,261.110535 126.362106,264.675659 
	C130.003922,264.675659 133.589584,264.675659 137.688232,264.675659 
	C137.798523,262.359955 137.913467,259.946899 138.045547,257.174072 
	C141.133865,257.174072 144.170914,257.174072 147.488556,257.174072 
	C147.488556,262.315979 147.488556,267.408325 147.488556,272.851074 
	C135.574661,272.851074 123.677940,272.851074 111.525955,272.851074 
	C111.525955,270.395233 111.525955,267.983246 111.525955,265.266479 
	C113.003677,265.084412 114.395081,264.912964 115.913254,264.725922 
	C115.913254,255.501038 115.913254,246.545197 115.913254,237.186218 
	C114.538979,236.980896 113.166428,236.775833 111.550644,236.534424 
	C111.550644,233.561371 111.550644,230.808350 111.550644,227.747528 
	C123.458305,227.747528 135.205994,227.747528 147.360413,227.747528 
	C147.360413,232.710938 147.360413,237.578232 147.360413,242.736908 
	C144.419357,242.736908 141.496552,242.736908 138.188446,242.736908 
	C138.024246,241.090164 137.850952,239.352264 137.576889,236.603943 
	C133.786255,236.998901 130.009155,237.392441 126.178055,238.252228 
z"/>
<path fill="#111313" opacity="1.000000" stroke="none" 
	d="
M186.927994,146.544861 
	C185.298874,148.437057 183.097061,149.964005 182.848038,151.761490 
	C182.154968,156.763596 179.266190,157.172302 175.129654,157.079285 
	C164.929794,156.849915 163.446075,155.081528 167.283493,145.412827 
	C171.252304,135.413055 178.862686,129.466904 189.673126,129.052155 
	C202.971130,128.541931 216.303497,128.994141 229.615768,128.747498 
	C233.557343,128.674484 234.113174,131.489731 235.301361,133.910706 
	C240.407242,144.314301 239.872345,145.176422 228.544464,145.172394 
	C217.391327,145.168442 206.237411,145.098770 195.085602,145.219131 
	C192.468979,145.247360 189.859344,145.924469 186.927994,146.544861 
z"/>
<path fill="#161A1B" opacity="1.000000" stroke="none" 
	d="
M88.081924,256.102631 
	C85.953323,258.657471 84.047310,260.933868 81.680885,263.760132 
	C85.991310,263.760132 89.669975,263.760132 93.733192,263.760132 
	C93.913734,261.861572 94.109940,259.798279 94.333328,257.449036 
	C97.382477,257.449036 100.302223,257.449036 103.599609,257.449036 
	C103.599609,262.524902 103.599609,267.599457 103.599609,272.942749 
	C92.377655,272.942749 81.105217,272.942749 69.495491,272.942749 
	C68.772224,267.918793 68.827461,263.533905 72.732567,259.261383 
	C78.980568,252.425583 84.513580,244.936279 90.921013,237.015961 
	C86.609375,237.015961 83.130547,237.015961 79.371101,237.015961 
	C79.206802,239.079773 79.039688,241.179047 78.850105,243.560486 
	C75.819153,243.560486 72.895569,243.560486 69.595200,243.560486 
	C69.595200,238.460648 69.595200,233.371796 69.595200,227.858521 
	C80.869743,227.858521 92.245712,227.858521 103.610977,227.858521 
	C104.728630,233.314178 104.045387,237.920547 99.893929,242.081558 
	C95.676361,246.308823 92.139481,251.215210 88.081924,256.102631 
z"/>
<path fill="#131718" opacity="1.000000" stroke="none" 
	d="
M250.917694,229.991058 
	C254.074066,239.838516 256.992706,249.348511 260.251587,258.740417 
	C261.107880,261.208160 260.591339,264.789642 264.830078,265.574585 
	C265.559845,265.709686 265.515198,270.026672 265.882446,272.824677 
	C259.792267,272.824677 254.260162,272.824677 248.431335,272.824677 
	C248.431335,270.491486 248.431335,268.221497 248.431335,265.546814 
	C249.505493,265.275391 250.861435,264.932739 252.405823,264.542480 
	C251.389679,261.888062 252.506195,258.025726 247.446381,258.136230 
	C234.349609,258.422272 237.216782,257.077423 234.987518,264.542725 
	C236.344925,264.804749 237.689011,265.064240 239.268738,265.369202 
	C239.268738,267.758789 239.268738,270.183472 239.268738,272.896973 
	C233.646790,272.896973 228.236420,272.896973 222.467590,272.896973 
	C222.467590,270.503387 222.467590,268.100525 222.467590,267.167786 
	C224.436615,264.432678 226.175995,262.864655 226.859024,260.924713 
	C230.271103,251.233643 233.567200,241.493881 236.548218,231.663345 
	C237.550461,228.358246 239.055450,226.712952 242.443710,227.490494 
	C245.243347,228.132950 248.905289,225.466553 250.917694,229.991058 
M245.921295,242.724426 
	C245.214554,240.759216 244.507812,238.794006 243.529449,236.073486 
	C241.924835,241.425613 240.576675,245.922348 239.202103,250.507202 
	C242.473541,250.507202 245.159866,250.507202 248.191559,250.507202 
	C247.400864,247.880630 246.739868,245.684937 245.921295,242.724426 
z"/>
<path fill="#181E1F" opacity="1.000000" stroke="none" 
	d="
M215.178192,268.863342 
	C213.835480,271.408966 212.594650,273.553741 211.393127,275.720276 
	C208.771255,280.447998 204.812698,281.006897 199.481354,279.291473 
	C209.980011,266.577148 204.091263,251.717468 206.055603,237.589279 
	C199.038696,236.732544 201.835556,231.872955 201.489395,227.797974 
	C207.231857,227.797974 212.763031,227.797974 218.641617,227.797974 
	C218.219269,231.370911 220.866989,235.350143 215.974716,237.769424 
	C215.372375,238.067291 215.629623,240.249130 215.611649,241.559586 
	C215.488678,250.530258 215.398590,259.501373 215.178192,268.863342 
z"/>
<path fill="#041E24" opacity="1.000000" stroke="none" 
	d="
M149.920395,179.426788 
	C164.528931,179.157242 179.387527,179.184570 194.183075,179.494949 
	C180.748749,179.910324 167.377457,180.042648 154.006165,180.174988 
	C152.727585,180.024567 151.449020,179.874130 149.920395,179.426788 
z"/>
<path fill="#BAD5DB" opacity="1.000000" stroke="none" 
	d="
M154.354797,180.394257 
	C167.377457,180.042648 180.748749,179.910324 194.570312,179.630447 
	C195.410782,179.471771 195.801010,179.460663 196.485535,179.459335 
	C195.988205,179.959900 195.195923,180.878815 194.404999,180.877625 
	C181.171036,180.857712 167.937241,180.722839 154.354797,180.394257 
z"/>
<path fill="#A0D1D6" opacity="1.000000" stroke="none" 
	d="
M175.647949,246.845963 
	C173.441025,246.849594 171.660049,246.849594 169.552490,246.849594 
	C169.552490,243.055496 169.552490,239.692322 169.552490,236.365936 
	C177.917709,234.982376 182.112350,236.307495 182.609604,240.646759 
	C183.149948,245.362015 179.806946,246.408463 175.647949,246.845963 
z"/>
<path fill="#9DCCD0" opacity="1.000000" stroke="none" 
	d="
M246.000092,243.106842 
	C246.739868,245.684937 247.400864,247.880630 248.191559,250.507202 
	C245.159866,250.507202 242.473541,250.507202 239.202103,250.507202 
	C240.576675,245.922348 241.924835,241.425613 243.529449,236.073486 
	C244.507812,238.794006 245.214554,240.759216 246.000092,243.106842 
z"/>
</svg>